<svg width="24" height="28" viewBox="0 0 24 28" fill="none" xmlns="http://www.w3.org/2000/svg">
<g filter="url(#filter0_d_19_12132)">
<path d="M11.8672 13.582C11.7837 13.582 11.7002 13.5542 11.626 13.4707L8.18408 10.0566C8.11914 9.9917 8.08203 9.92676 8.08203 9.83398C8.08203 9.65771 8.22119 9.51855 8.38818 9.51855C8.48096 9.51855 8.57373 9.56494 8.63867 9.62988L10.4385 11.4482L11.5425 12.5708L11.5239 11.272V0.343262C11.5239 0.157715 11.6816 0 11.8672 0C12.0527 0 12.2104 0.157715 12.2104 0.343262V11.272L12.1826 12.5615L13.2773 11.4482L15.0864 9.62988C15.1514 9.56494 15.2441 9.51855 15.3276 9.51855C15.4946 9.51855 15.6431 9.65771 15.6431 9.83398C15.6431 9.92676 15.606 9.9917 15.541 10.0566L12.1084 13.4707C12.0342 13.5542 11.9507 13.582 11.8672 13.582ZM6.50488 19.3804C4.86279 19.3804 4 18.5269 4 16.8848V7.10645C4 5.46436 4.86279 4.61084 6.50488 4.61084H10.021V5.29736H6.52344C5.31738 5.29736 4.68652 5.92822 4.68652 7.14355V16.8477C4.68652 18.063 5.31738 18.6938 6.52344 18.6938H17.2109C18.3706 18.6938 19.0386 18.063 19.0386 16.8477V7.14355C19.0386 5.92822 18.3706 5.29736 17.2109 5.29736H13.7041V4.61084H17.2295C18.8716 4.61084 19.7344 5.48291 19.7344 7.10645V16.8848C19.7344 18.5083 18.8716 19.3804 17.2295 19.3804H6.50488Z" fill="black"/>
</g>
<defs>
<filter id="filter0_d_19_12132" x="0" y="0" width="23.7344" height="27.3804" filterUnits="userSpaceOnUse" color-interpolation-filters="sRGB">
<feFlood flood-opacity="0" result="BackgroundImageFix"/>
<feColorMatrix in="SourceAlpha" type="matrix" values="0 0 0 0 0 0 0 0 0 0 0 0 0 0 0 0 0 0 127 0" result="hardAlpha"/>
<feOffset dy="4"/>
<feGaussianBlur stdDeviation="2"/>
<feComposite in2="hardAlpha" operator="out"/>
<feColorMatrix type="matrix" values="0 0 0 0 0 0 0 0 0 0 0 0 0 0 0 0 0 0 0.25 0"/>
<feBlend mode="normal" in2="BackgroundImageFix" result="effect1_dropShadow_19_12132"/>
<feBlend mode="normal" in="SourceGraphic" in2="effect1_dropShadow_19_12132" result="shape"/>
</filter>
</defs>
</svg>
